<?xml version="1.0" standalone="no"?><!DOCTYPE svg PUBLIC "-//W3C//DTD SVG 1.1//EN" "http://www.w3.org/Graphics/SVG/1.1/DTD/svg11.dtd"><svg t="1571019879406" class="icon" viewBox="0 0 1024 1024" version="1.1" xmlns="http://www.w3.org/2000/svg" p-id="4005" width="32" height="32" xmlns:xlink="http://www.w3.org/1999/xlink"><defs><style type="text/css"></style></defs><path d="M1024 256c0-141.312-114.752-256-256-256-95.488 0-177.984 53.056-222.016 130.752 0-0.064 0.128-0.128 0.128-0.192-11.744-1.12-23.136-3.552-35.136-3.552-212.128 0-384 171.872-384 384 0 80.864 25.248 155.744 67.872 217.504L0 1024l297.248-193.984c61.12 40.992 134.624 64.992 213.76 64.992 212.128 0 384-171.872 384-384 0-11.072-2.24-21.44-3.264-32.256C970.24 435.008 1024 352.192 1024 256zM511.008 767.008c-141.248 0-256-114.752-256-256 0-141.184 114.752-256 256-256 0.384 0 0.736 0.128 0.992 0.128 0-0.256 0.128-0.448 0.128-0.64C512.128 255.008 512 255.488 512 256c0 22.24 3.744 43.36 8.992 63.936l-101.504 101.568c-49.984 49.984-49.984 131.008 0 180.992s131.008 49.984 180.992 0l100.512-100.512c21.12 5.76 43.008 9.76 65.888 9.888C766.368 652.736 651.872 767.008 511.008 767.008zM768 384c-70.496 0-128-57.44-128-128s57.504-128 128-128 128 57.44 128 128S838.496 384 768 384z" p-id="4006" fill="#1296db"></path></svg>