<?xml version="1.0" standalone="no"?><!DOCTYPE svg PUBLIC "-//W3C//DTD SVG 1.1//EN" "http://www.w3.org/Graphics/SVG/1.1/DTD/svg11.dtd"><svg t="1571021513947" class="icon" viewBox="0 0 1024 1024" version="1.1" xmlns="http://www.w3.org/2000/svg" p-id="16603" width="32" height="32" xmlns:xlink="http://www.w3.org/1999/xlink"><defs><style type="text/css"></style></defs><path d="M475.136 767.488c12.288 1.536 24.576 3.584 36.864 3.584s25.088-1.536 36.864-3.584v112.128c-12.288 1.024-24.576 2.56-36.864 2.56s-25.088-1.024-36.864-2.56v-112.128z m270.336-144.384h120.32c-35.84 115.2-127.488 206.848-242.688 242.688v-120.32c53.76-25.6 96.768-69.12 122.368-122.368z m-587.264 0h120.32c25.6 53.76 68.608 96.768 122.368 122.368v120.32c-115.2-36.352-206.336-128-242.688-242.688z m609.28-147.968h112.128c1.024 12.288 2.56 24.576 2.56 36.864s-1.024 25.088-2.56 36.864h-112.128c1.536-12.288 3.584-24.576 3.584-36.864s-2.048-25.088-3.584-36.864z m-623.104 0h111.104c-1.536 11.776-2.56 24.576-2.56 36.864 0 12.8 1.536 25.088 3.584 36.864h-112.128c-1.024-12.288-2.56-24.576-2.56-36.864 0-12.288 1.536-25.088 2.56-36.864z m367.616-147.968c102.4 0 184.832 82.432 184.832 184.832s-82.432 184.832-184.832 184.832-184.832-82.432-184.832-184.832 82.432-184.832 184.832-184.832z m111.104-168.96c115.2 35.84 206.848 127.488 242.688 242.688h-120.32c-25.6-53.76-68.608-96.768-122.368-122.368v-120.32z m-222.208 0v120.32c-53.76 25.6-96.768 68.608-122.368 122.368h-119.296c36.352-115.712 126.464-206.848 241.664-242.688z m111.104-16.384c12.288 0 25.088 1.024 36.864 2.56v112.128c-12.288-1.536-24.576-3.584-36.864-3.584s-25.088 1.536-36.864 3.584v-112.128c11.776-1.536 24.576-2.56 36.864-2.56z m0-73.728c-244.736 0-443.904 199.168-443.904 443.904S267.264 955.904 512 955.904s443.904-199.168 443.904-443.904-199.168-443.904-443.904-443.904z" p-id="16604" fill="#bfbfbf"></path></svg>