<?xml version="1.0" standalone="no"?><!DOCTYPE svg PUBLIC "-//W3C//DTD SVG 1.1//EN" "http://www.w3.org/Graphics/SVG/1.1/DTD/svg11.dtd"><svg t="1571020523463" class="icon" viewBox="0 0 1024 1024" version="1.1" xmlns="http://www.w3.org/2000/svg" p-id="7231" width="32" height="32" xmlns:xlink="http://www.w3.org/1999/xlink"><defs><style type="text/css"></style></defs><path d="M960 837.888 960 186.112c37.184-13.248 64-48.384 64-90.112C1024 43.008 980.992 0 928 0c-41.728 0-76.928 26.816-90.112 64L186.112 64C172.928 26.816 137.728 0 96 0 43.008 0 0 43.008 0 96c0 41.728 26.816 76.928 64 90.112l0 651.776c-37.184 13.248-64 48.384-64 90.112C0 980.992 43.008 1024 96 1024c41.728 0 76.928-26.816 90.112-64l651.776 0c13.248 37.184 48.384 64 90.112 64 52.992 0 96-43.008 96-96C1024 886.272 997.184 851.072 960 837.888zM96 960C78.336 960 64 945.664 64 928 64 910.336 78.336 896 96 896S128 910.336 128 928C128 945.664 113.664 960 96 960zM96 128C78.336 128 64 113.664 64 96 64 78.336 78.336 64 96 64S128 78.336 128 96C128 113.664 113.664 128 96 128zM832 832 192 832 192 192l640 0L832 832zM928 64C945.664 64 960 78.336 960 96 960 113.664 945.664 128 928 128 910.336 128 896 113.664 896 96 896 78.336 910.336 64 928 64zM928 960c-17.664 0-32-14.336-32-32 0-17.664 14.336-32 32-32 17.664 0 32 14.336 32 32C960 945.664 945.664 960 928 960z" p-id="7232" fill="#1296db"></path></svg>